<?xml version="1.0" encoding="UTF-8" standalone="no"?>
<!-- Created with Inkscape (http://www.inkscape.org/) -->

<svg
   xmlns:dc="http://purl.org/dc/elements/1.1/"
   xmlns:cc="http://creativecommons.org/ns#"
   xmlns:rdf="http://www.w3.org/1999/02/22-rdf-syntax-ns#"
   xmlns:svg="http://www.w3.org/2000/svg"
   xmlns="http://www.w3.org/2000/svg"
   xmlns:sodipodi="http://sodipodi.sourceforge.net/DTD/sodipodi-0.dtd"
   xmlns:inkscape="http://www.inkscape.org/namespaces/inkscape"
   width="210mm"
   height="297mm"
   id="svg2"
   version="1.1"
   inkscape:version="0.48.4 r9939"
   sodipodi:docname="small-steps.svg"
   inkscape:export-filename="/home/chenno/projects/confs/bed-2014/small-steps.png"
   inkscape:export-xdpi="167.89999"
   inkscape:export-ydpi="167.89999">
  <defs
     id="defs4" />
  <sodipodi:namedview
     id="base"
     pagecolor="#000000"
     bordercolor="#666666"
     borderopacity="1.0"
     inkscape:pageopacity="1"
     inkscape:pageshadow="2"
     inkscape:zoom="1.5780274"
     inkscape:cx="196.80612"
     inkscape:cy="816.85752"
     inkscape:document-units="px"
     inkscape:current-layer="layer1"
     showgrid="false"
     inkscape:window-width="1920"
     inkscape:window-height="1011"
     inkscape:window-x="0"
     inkscape:window-y="0"
     inkscape:window-maximized="1" />
  <metadata
     id="metadata7">
    <rdf:RDF>
      <cc:Work
         rdf:about="">
        <dc:format>image/svg+xml</dc:format>
        <dc:type
           rdf:resource="http://purl.org/dc/dcmitype/StillImage" />
        <dc:title></dc:title>
      </cc:Work>
    </rdf:RDF>
  </metadata>
  <g
     inkscape:label="Capa 1"
     inkscape:groupmode="layer"
     id="layer1">
    <g
       inkscape:groupmode="layer"
       id="layer2"
       inkscape:label="Capa" />
    <path
       style="fill:none;stroke:#ffffff;stroke-width:1px;stroke-linecap:butt;stroke-linejoin:miter;stroke-opacity:1"
       d="m 123.57199,408.52037 34.14073,0 0,-34.21994 34.14072,0 0,-34.21993 34.14073,0 0,-34.21994 34.14073,0 0,-34.21994 34.14072,0 0,-34.21994 34.14073,0 0,-34.21993 34.14072,0 0,-34.21994 34.14073,0"
       id="path3802"
       inkscape:connector-curvature="0"
       sodipodi:nodetypes="cccccccccccccccc" />
    <g
       id="g3816"
       transform="translate(0,25.981805)">
      <path
         transform="matrix(0.93333333,0,0,0.93333333,11.153165,4.5481414)"
         d="m 157.79193,172.78304 c 0,10.49952 -8.51155,19.01107 -19.01108,19.01107 -10.49952,0 -19.01107,-8.51155 -19.01107,-19.01107 0,-10.49953 8.51155,-19.01108 19.01107,-19.01108 10.49953,0 19.01108,8.51155 19.01108,19.01108 z"
         sodipodi:ry="19.011076"
         sodipodi:rx="19.011076"
         sodipodi:cy="172.78304"
         sodipodi:cx="138.78085"
         id="path3804"
         style="fill:#ffd1d1;fill-opacity:1;stroke:#ffffff;stroke-width:0.53571427;stroke-linecap:round;stroke-linejoin:bevel;stroke-miterlimit:4;stroke-opacity:1;stroke-dasharray:none;stroke-dashoffset:0"
         sodipodi:type="arc" />
      <path
         inkscape:connector-curvature="0"
         id="path3806"
         d="m 140.68197,184.18968 0,74.7769 39.47296,22.78973 0,55.78939"
         style="fill:none;stroke:#ffffff;stroke-width:1px;stroke-linecap:butt;stroke-linejoin:miter;stroke-opacity:1" />
      <path
         inkscape:connector-curvature="0"
         id="path3808"
         d="m 140.68197,258.96658 0,106.46203"
         style="fill:none;stroke:#ffffff;stroke-width:1px;stroke-linecap:butt;stroke-linejoin:miter;stroke-opacity:1" />
      <path
         inkscape:connector-curvature="0"
         id="path3814"
         d="m 114.70016,291.28541 0,-47.52769 25.34811,-37.38845 22.81329,36.12104 32.95253,20.91219"
         style="fill:none;stroke:#ffffff;stroke-width:1px;stroke-linecap:butt;stroke-linejoin:miter;stroke-opacity:1" />
    </g>
    <g
       id="g3822"
       transform="matrix(-1,0,0,1,717.3513,-134.97865)">
      <path
         sodipodi:type="arc"
         style="fill:#ffd1d1;fill-opacity:1;stroke:#ffffff;stroke-width:0.53571427;stroke-linecap:round;stroke-linejoin:bevel;stroke-miterlimit:4;stroke-opacity:1;stroke-dasharray:none;stroke-dashoffset:0"
         id="path3824"
         sodipodi:cx="138.78085"
         sodipodi:cy="172.78304"
         sodipodi:rx="19.011076"
         sodipodi:ry="19.011076"
         d="m 157.79193,172.78304 c 0,10.49952 -8.51155,19.01107 -19.01108,19.01107 -10.49952,0 -19.01107,-8.51155 -19.01107,-19.01107 0,-10.49953 8.51155,-19.01108 19.01107,-19.01108 10.49953,0 19.01108,8.51155 19.01108,19.01108 z"
         transform="matrix(0.93333333,0,0,0.93333333,11.153165,4.5481414)" />
      <path
         style="fill:none;stroke:#ffffff;stroke-width:1px;stroke-linecap:butt;stroke-linejoin:miter;stroke-opacity:1"
         d="m 140.68197,184.18968 0,74.7769 -10.58954,55.74227 -44.359181,14.59872"
         id="path3826"
         inkscape:connector-curvature="0"
         sodipodi:nodetypes="cccc" />
      <path
         style="fill:none;stroke:#ffffff;stroke-width:1px;stroke-linecap:butt;stroke-linejoin:miter;stroke-opacity:1"
         d="m 140.68197,258.96658 0,106.46203"
         id="path3828"
         inkscape:connector-curvature="0" />
      <path
         style="fill:none;stroke:#ffffff;stroke-width:1px;stroke-linecap:butt;stroke-linejoin:miter;stroke-opacity:1"
         d="m 107.72943,291.28541 18.37738,-41.82437 13.94146,-43.09177 13.94145,45.62658 22.17959,29.15032"
         id="path3830"
         inkscape:connector-curvature="0"
         sodipodi:nodetypes="ccccc" />
    </g>
    <path
       sodipodi:nodetypes="cccccc"
       style="fill:none;stroke:#ffffff;stroke-width:1px;stroke-linecap:butt;stroke-linejoin:miter;stroke-opacity:1"
       d="m 160.5758,236.97041 35.13258,-36.69786 8.00341,7.66899 5.16102,-21.40049 -21.2038,6.02813 8.03941,7.70334"
       id="path3615"
       inkscape:connector-curvature="0"
       inkscape:export-filename="/home/chenno/projects/confs/nodejsconf.it/memcached.png"
       inkscape:export-xdpi="167"
       inkscape:export-ydpi="167" />
    <path
       inkscape:export-ydpi="167"
       inkscape:export-xdpi="167"
       inkscape:export-filename="/home/chenno/projects/confs/nodejsconf.it/memcached.png"
       inkscape:connector-curvature="0"
       id="path3869"
       d="m 562.47884,67.404979 -35.13258,36.697861 -8.00341,-7.668991 -5.16102,21.400491 21.2038,-6.02813 -8.03941,-7.70334"
       style="fill:none;stroke:#ffffff;stroke-width:1px;stroke-linecap:butt;stroke-linejoin:miter;stroke-opacity:1"
       sodipodi:nodetypes="cccccc" />
    <path
       sodipodi:nodetypes="cccccccccccccccc"
       inkscape:connector-curvature="0"
       id="path3915"
       d="m 400.50001,408.52037 34.14073,0 0,-34.21994 34.14072,0 0,-34.21993 34.14073,0 0,-34.21994 34.14073,0 0,-34.21994 34.14072,0 0,-34.21994 34.14073,0 0,-34.21993 34.14072,0 0,-34.21994 34.14073,0"
       style="fill:none;stroke:#ffffff;stroke-width:1px;stroke-linecap:butt;stroke-linejoin:miter;stroke-opacity:1" />
  </g>
</svg>
